<svg xmlns="http://www.w3.org/2000/svg" viewBox="0 0 1725.94 1039.3"><defs><style>.cls-1{fill:#8d55d6;}.cls-2{fill:#671cc9;}.cls-3{font-size:194.8px;fill:#fff;font-family:ArialRoundedMTBold, Arial Rounded MT Bold;}</style></defs><g id="Calque_1" data-name="Calque 1"><path class="cls-1" d="M100.19,172.77S87.43,132.87,113,115.32,275.72,24.37,355.5,22.77,462.41,10,559.75,62.66s143.61,148.4,143.61,148.4H1822.94L1724.59,476H804.48l24.94,65.42H1701l-92.85,264.88H841.27L799.9,706.52h740.39l30.32-67-799.44,3.19L665.86,369.83H1660l22.34-65.42-1043.58-1.6-35.1-92.54S533.42,108.14,412.15,98.57s-263.29,92.55-263.29,92.55S118.54,199.1,100.19,172.77Z" transform="translate(-97 -20.7)"/><path class="cls-2" d="M1087.92,929.12H1353.1s20.44-62.23,90.65-62.23,95.74,67,95.74,94.14-22.34,97.34-94.14,98.93-90.95-63.82-90.95-63.82l-266.48,1s-12.49,62.13-87.23,62.9-95.48-61.46-97.07-103,45.75-89.36,97.07-90.15S1080.74,906,1087.92,929.12Z" transform="translate(-97 -20.7)"/><path class="cls-2" d="M559.75,62.66s76.59-35.1,95.74-12.76-29.43,60.76-29.43,60.76S543.79,176,487.94,199.89,438.48,219,438.48,219s-27.93,7.18-10.38-27.92h22.34s-14.36-36.7-55.85-1.6c0,0-19.14,35.11,20.75,54.25,0,0,20.74,4.79,38.29-16L525,195.45l86.63,73.86L517.46,834.18s6.38,14.36-14.36,14.36L145.67,791.09s-25.53-3.19-19.15-39.89l95.74-550.51,212.23-81.38,60.63,54.25s110.1-65.42,127.66-86.16c0,0,19.41-41.54-33.38-6.41Z" transform="translate(-97 -20.7)"/></g><g id="Calque_2" data-name="Calque 2"><text class="cls-3" transform="matrix(0.15, -0.81, 0.98, 0.18, 295.26, 788.11)">BIPBIP</text></g></svg>