<?xml version="1.0" encoding="utf-8"?>
<!-- Generator: Adobe Illustrator 25.0.0, SVG Export Plug-In . SVG Version: 6.00 Build 0)  -->
<svg version="1.1" id="_x3C_Layer_x3E_" xmlns="http://www.w3.org/2000/svg" xmlns:xlink="http://www.w3.org/1999/xlink" x="0px"
	 y="0px" viewBox="0 0 1550.2 1439.5" style="enable-background:new 0 0 1550.2 1439.5;" xml:space="preserve">
<style type="text/css">
	.st0{fill:#4E16A5;}
	.st1{fill:#671CC9;}
	.st2{opacity:0.4;}
	.st3{clip-path:url(#SVGID_6_);}
	.st4{clip-path:url(#SVGID_9_);fill:url(#SVGID_12_);}
	.st5{opacity:0.26;fill:#671CC9;enable-background:new    ;}
	.st6{fill:#05C5DB;}
	.st7{clip-path:url(#SVGID_19_);}
	.st8{clip-path:url(#SVGID_20_);fill:url(#SVGID_21_);}
	.st9{opacity:0.26;fill:url(#SVGID_22_);enable-background:new    ;}
	.st10{fill:#292969;}
	.st11{clip-path:url(#SVGID_25_);}
	.st12{clip-path:url(#SVGID_26_);fill:url(#SVGID_27_);}
	.st13{opacity:0.26;fill:url(#SVGID_28_);enable-background:new    ;}
	.st14{fill:#3D6ACC;}
	.st15{clip-path:url(#SVGID_31_);}
	.st16{clip-path:url(#SVGID_32_);fill:url(#SVGID_33_);}
	.st17{opacity:0.14;fill:url(#SVGID_34_);enable-background:new    ;}
	.st18{clip-path:url(#SVGID_37_);}
	.st19{clip-path:url(#SVGID_38_);fill:url(#SVGID_39_);}
	.st20{clip-path:url(#SVGID_42_);}
	.st21{clip-path:url(#SVGID_43_);fill:url(#SVGID_44_);}
	.st22{opacity:0.26;fill:url(#SVGID_45_);enable-background:new    ;}
	.st23{fill:#E3F5FF;}
	.st24{clip-path:url(#SVGID_48_);}
	.st25{clip-path:url(#SVGID_49_);fill:url(#SVGID_50_);}
	.st26{opacity:0.26;fill:url(#SVGID_51_);enable-background:new    ;}
	.st27{clip-path:url(#SVGID_54_);}
	.st28{clip-path:url(#SVGID_55_);fill:url(#SVGID_56_);}
	.st29{opacity:0.26;fill:url(#SVGID_57_);enable-background:new    ;}
	.st30{clip-path:url(#SVGID_60_);}
	.st31{clip-path:url(#SVGID_61_);fill:url(#SVGID_62_);}
	.st32{opacity:0.14;fill:url(#SVGID_63_);enable-background:new    ;}
	.st33{clip-path:url(#SVGID_66_);}
	.st34{clip-path:url(#SVGID_67_);fill:url(#SVGID_68_);}
	.st35{opacity:0.14;fill:url(#SVGID_69_);enable-background:new    ;}
	.st36{clip-path:url(#SVGID_72_);}
	.st37{clip-path:url(#SVGID_73_);fill:url(#SVGID_74_);}
	.st38{opacity:0.26;fill:url(#SVGID_75_);enable-background:new    ;}
	.st39{fill:#3F3D56;}
	.st40{opacity:0.1;enable-background:new    ;}
	.st41{fill:#2F2E41;}
	.st42{fill:#FBBEBE;}
	.st43{fill:#FF6584;}
	.st44{fill:#FFB9B9;}
</style>
<path class="st0" d="M1386.2,748.3c0-36.9-22.6-69.2-56.5-87.4c-18.7-10-28.6-29-24-47.6c1.3-5.2,2-10.6,2-16.1
	c0-36.7-29.9-67.4-70-75.1c-10.6-2-17.7-10.5-16.7-19.8c0.5-4.1,0.6-8.1,0.1-11.4c-3.2-21.3-17.2-32.9-37.3-42.3
	c-10.3-4.9-15.4-15.1-12.5-25c1.4-4.8,2.3-9.9,2.4-15.2c1.2-39.2-23.4-55.4-40.4-62.6c-8.3-3.6-14.4-10.1-16.9-17.8
	c-6.6-21-29.7-36.1-56.6-34.6c-26.3,1.5-47.8,19.3-50.7,41.8c0,0.2,0,0.4-0.1,0.5c-0.9,7.7-8.6,13.4-17.6,13c-2.9-0.1-5.9-0.1-9,0.1
	c-33.3,2.4-60.1,25.6-62.4,54.3c-0.4,4.6-0.1,9,0.7,13.3c1.8,9.9-3.3,19.8-13.2,25.2c-18.7,10.2-33.3,25.5-41,43.7
	c-3,7-9.8,12.4-18.2,14.4c-37.5,9-65,38.5-65,73.6c0,9.4,2,18.5,5.6,26.8c5.6,12.9-1.6,27.2-16.4,32.5c-39.8,14.3-67.8,48-67.8,87.4
	c0,15.9,4.6,31,12.7,44.1c12.3,19.9,7.7,44.6-11.8,59.7c-27.5,21.4-44.8,52.3-44.8,86.7v42.6h736.6v-42.6
	c0-17.2-12.7-33.6-27.6-48.3c-16.3-16-17.4-39.4-3.7-57.1C1378.8,788.9,1386.2,769.4,1386.2,748.3z"/>
<path class="st0" d="M855.6,832.1c0-42.4-20.5-79.6-51.3-100.5c-17-11.5-26-33.4-21.8-54.7c1.2-6,1.8-12.1,1.8-18.5
	c0-42.2-27.2-77.5-63.6-86.3c-9.6-2.3-16.1-12.1-15.2-22.8c0.4-4.8,0.6-9.3,0.1-13.1c-2.9-24.5-15.6-37.8-33.8-48.7
	c-9.4-5.6-14-17.4-11.3-28.7c1.3-5.6,2.1-11.4,2.2-17.4c1.1-45.1-21.2-63.6-36.7-72c-7.6-4.1-13.1-11.6-15.3-20.5
	c-6-24.1-27-41.5-51.4-39.7c-23.9,1.7-43.4,22.2-46,48c0,0.2,0,0.4-0.1,0.6c-0.8,8.9-7.8,15.4-16,15c-2.7-0.1-5.4-0.1-8.1,0.2
	c-30.3,2.7-54.5,29.4-56.7,62.4c-0.3,5.2-0.1,10.4,0.6,15.3c1.6,11.4-3,22.8-12,28.9c-17,11.7-30.2,29.4-37.2,50.3
	c-2.7,8.1-8.9,14.3-16.5,16.6c-34,10.3-59,44.3-59,84.6c0,10.9,1.8,21.3,5.1,30.8c5.1,14.8-1.5,31.2-14.9,37.3
	c-36.1,16.4-61.5,55.2-61.5,100.4c0,18.3,4.2,35.6,11.5,50.7c11.1,22.9,7,51.3-10.7,68.7c-25,24.6-40.7,60.1-40.7,99.7v48.9h668.8
	v-48.9c0-19.8-11.5-38.6-25.1-55.6c-14.8-18.4-15.8-45.3-3.4-65.6C848.9,878.7,855.6,856.3,855.6,832.1z"/>
<path class="st1" d="M951.9,855.2c0-37.9-18.3-71.2-45.9-89.9c-15.2-10.3-23.2-29.9-19.5-48.9c1-5.3,1.6-10.9,1.6-16.5
	c0-37.8-24.3-69.3-56.8-77.2c-8.6-2.1-14.4-10.8-13.6-20.4c0.4-4.3,0.5-8.3,0.1-11.7c-2.6-21.9-13.9-33.8-30.3-43.5
	c-8.4-5-12.5-15.6-10.1-25.7c1.2-5,1.8-10.2,2-15.6c1-40.3-19-56.9-32.8-64.4c-6.8-3.7-11.7-10.4-13.7-18.3
	c-5.4-21.5-24.1-37.1-45.9-35.5c-21.3,1.5-38.9,19.8-41.1,42.9c0,0.2,0,0.4-0.1,0.5c-0.7,7.9-7,13.8-14.3,13.4
	c-2.4-0.1-4.8-0.1-7.3,0.1c-27.1,2.4-48.8,26.3-50.7,55.8c-0.3,4.7-0.1,9.3,0.5,13.7c1.5,10.2-2.7,20.4-10.7,25.9
	c-15.2,10.5-27,26.2-33.3,45c-2.4,7.2-8,12.7-14.8,14.8c-30.4,9.2-52.8,39.6-52.8,75.6c0,9.7,1.6,19,4.6,27.6
	c4.6,13.3-1.3,27.9-13.3,33.4c-32.3,14.7-55,49.3-55,89.8c0,16.4,3.7,31.8,10.3,45.4c10,20.5,6.3,45.8-9.6,61.4
	c-22.3,22-36.4,53.8-36.4,89.1v43.8h598.1V1022c0-17.7-10.3-34.6-22.4-49.7c-13.2-16.5-14.1-40.5-3-58.7
	C945.9,896.9,951.9,876.8,951.9,855.2z"/>
<g class="st2">
	<path class="st1" d="M297.2,932.2c9.4,15.3,8.6,35.6-2.5,49.4c-10.2,12.8-18.9,26.9-18.9,41.9v36.9h503.7v-36.9
		c0-29.8-11.8-56.6-30.6-75.1c-13.3-13.1-16.5-34.4-8.1-51.7c5.5-11.4,8.7-24.4,8.7-38.2c0-34.1-19.1-63.3-46.3-75.6
		c-10.1-4.6-15.1-16.9-11.2-28.1c2.5-7.2,3.9-15.1,3.9-23.2c0-30.4-18.8-56-44.5-63.7c-5.7-1.7-10.4-6.4-12.4-12.5
		c-5.2-15.8-15.2-29.1-28-37.9c-6.8-4.6-10.2-13.2-9-21.8c0.5-3.7,0.7-7.6,0.5-11.5c-1.6-24.8-19.9-45-42.7-47
		c-2.1-0.2-4.1-0.2-6.1-0.1c-6.2,0.3-11.4-4.6-12-11.3c0-0.2,0-0.3,0-0.5c-1.9-19.5-16.7-34.9-34.7-36.2
		c-18.4-1.3-34.1,11.8-38.7,29.9c-1.7,6.7-5.8,12.3-11.5,15.4c-11.7,6.3-28.5,20.3-27.6,54.2c0.1,4.5,0.7,8.9,1.7,13.1
		c2,8.5-1.5,17.4-8.5,21.6c-13.7,8.2-23.3,18.3-25.5,36.7c-0.3,2.8-0.2,6.2,0.1,9.8c0.7,8.1-4.2,15.4-11.4,17.2
		c-27.4,6.6-47.9,33.2-47.9,65c0,4.8,0.5,9.4,1.3,13.9c3.1,16.1-3.6,32.5-16.4,41.2c-23.2,15.7-38.6,43.7-38.6,75.7
		C283.6,901.1,288.6,918.1,297.2,932.2z"/>
</g>
<g>
	<path class="st1" d="M665.4,758c-13.5,31.1-6.8,43.3-4.1,77.1s-17.6,40.6-27.1,69s-2.7,41.9-5.4,77.1c-2.7,35.2-13.5,37.9-23,70.3
		c-9.5,32.5,0,77.1,6.8,138c4.2,37.7-5.6,107.4-13.7,155.1H474.8c9.6-90.2,23-235.3,14.8-267.4c-12.2-47.3,6.8-125.8,18.9-150.1
		c12.2-24.3,14.9-54.1,12.2-75.7c-2.7-21.6,9.5-29.8,24.3-46c14.9-16.2,14.9-51.4,21.6-81.2c6.8-29.8,36.5-41.9,40.6-67.6
		c4.1-25.7,68.3-73.7,86.6-53.4c19.9,22.1-18.3,48.7-22.3,73C667.5,700.6,679,726.9,665.4,758z"/>
	<g>
		<g>
			<defs>
				<polygon id="SVGID_1_" points="1,1 2,1 1,2 				"/>
			</defs>
			<defs>
				<polygon id="SVGID_3_" points="-1,-1 -2,-1 -1,-2 				"/>
			</defs>
			<clipPath id="SVGID_6_">
				<use xlink:href="#SVGID_1_"  style="overflow:visible;"/>
			</clipPath>
			<clipPath id="SVGID_9_" class="st3">
				<use xlink:href="#SVGID_3_"  style="overflow:visible;"/>
			</clipPath>
			
				<linearGradient id="SVGID_12_" gradientUnits="userSpaceOnUse" x1="4875.7861" y1="498.3327" x2="5191.9795" y2="391.2353" gradientTransform="matrix(-1 0 0 -1 5617.1519 1440)">
				<stop  offset="0" style="stop-color:#FFFFFF"/>
				<stop  offset="1" style="stop-color:#000000"/>
			</linearGradient>
			<path class="st4" d="M665.4,758c-13.5,31.1-6.8,43.3-4.1,77.1s-17.6,40.6-27.1,69s-2.7,41.9-5.4,77.1
				c-2.7,35.2-13.5,37.9-23,70.3c-9.5,32.5,0,77.1,6.8,138c4.2,37.7-5.6,107.4-13.7,155.1h-79.2c5.2-51.5,9.6-107.7,7.7-135.9
				c-4.1-59.9-18.3-89.3-3-128.8c15.2-39.6,40.6-36.5,33.5-90.3s-6.1-89.3,30.4-127.8c36.5-38.6,12.2-77.1,14.2-108.6
				c2-31.4,29.4-38.6,34.5-70s6.1-39.6,56.8-80.1c19.9,22.1-18.3,48.7-22.3,73C667.5,700.6,679,726.9,665.4,758z"/>
		</g>
	</g>
	<path class="st5" d="M665.4,758c-13.5,31.1-6.8,43.3-4.1,77.1s-17.6,40.6-27.1,69s-2.7,41.9-5.4,77.1c-2.7,35.2-13.5,37.9-23,70.3
		c-9.5,32.5,0,77.1,6.8,138c4.2,37.7-5.6,107.4-13.7,155.1h-79.2c5.2-51.5,9.6-107.7,7.7-135.9c-4.1-59.9-18.3-89.3-3-128.8
		c15.2-39.6,40.6-36.5,33.5-90.3s-6.1-89.3,30.4-127.8c36.5-38.6,12.2-77.1,14.2-108.6c2-31.4,29.4-38.6,34.5-70s6.1-39.6,56.8-80.1
		c19.9,22.1-18.3,48.7-22.3,73C667.5,700.6,679,726.9,665.4,758z"/>
	<path class="st6" d="M431.1,1344.7c-38.7-89.5-65.2-238.4-61.9-278.9c4.1-50.7-27.4-139-42.6-180.6s-7.1-78.1-7.1-104.5
		s-28.4-42.6-40.6-75.1s11.2-54.8,11.2-83.2s-8.1-90.3,0-90.3c0,0,33.5,24.3,52.8,52.8c19.3,28.4,14.2,73,37.5,91.3
		s36.5,34.5,41.6,73c5.1,38.6,16.2,39.6,35.5,83.2c19.3,43.6-7.1,79.1,3,126.8s32.5,43.6,69,126.8c25.9,59,18.1,188.4,11.4,258.6
		L431.1,1344.7L431.1,1344.7z"/>
	<g>
		<g>
			<defs>
				<polygon id="SVGID_14_" points="1,1 2,1 1,2 				"/>
			</defs>
			<defs>
				<polygon id="SVGID_17_" points="-1,-1 -2,-1 -1,-2 				"/>
			</defs>
			<clipPath id="SVGID_19_">
				<use xlink:href="#SVGID_14_"  style="overflow:visible;"/>
			</clipPath>
			<clipPath id="SVGID_20_" class="st7">
				<use xlink:href="#SVGID_17_"  style="overflow:visible;"/>
			</clipPath>
			
				<linearGradient id="SVGID_21_" gradientUnits="userSpaceOnUse" x1="5203.895" y1="507.2318" x2="5312.8247" y2="470.3363" gradientTransform="matrix(-1 0 0 -1 5617.1519 1440)">
				<stop  offset="0" style="stop-color:#FFFFFF"/>
				<stop  offset="1" style="stop-color:#000000"/>
			</linearGradient>
			<path class="st8" d="M431.1,1344.7c-38.7-89.5-65.2-238.4-61.9-278.9c4.1-50.7-27.4-139-42.6-180.6s-7.1-78.1-7.1-104.5
				s-28.4-42.6-40.6-75.1s11.2-54.8,11.2-83.2s-8.1-90.3,0-90.3c9.1,50.7,38.6,53.8,39.6,92.3c1,38.6-19.3,56.8,15.2,87.2
				s26.4,40.6,35.5,98.4c9.1,57.8,53.1,65.5,45,119.6c-9.4,63-1.1,121.8,29.9,165.2c37.7,52.8,24.2,143.3,44.1,204.6
				c-0.6,18.2,1.3,33,4.6,45.1h-72.9V1344.7z"/>
		</g>
	</g>
	
		<linearGradient id="SVGID_22_" gradientUnits="userSpaceOnUse" x1="5203.895" y1="507.2318" x2="5312.8247" y2="470.3363" gradientTransform="matrix(-1 0 0 -1 5617.1519 1440)">
		<stop  offset="0" style="stop-color:#246AFC"/>
		<stop  offset="1" style="stop-color:#5F48DC"/>
	</linearGradient>
	<path class="st9" d="M431.1,1344.7c-38.7-89.5-65.2-238.4-61.9-278.9c4.1-50.7-27.4-139-42.6-180.6s-7.1-78.1-7.1-104.5
		s-28.4-42.6-40.6-75.1s11.2-54.8,11.2-83.2s-8.1-90.3,0-90.3c9.1,50.7,38.6,53.8,39.6,92.3c1,38.6-19.3,56.8,15.2,87.2
		s26.4,40.6,35.5,98.4c9.1,57.8,53.1,65.5,45,119.6c-9.4,63-1.1,121.8,29.9,165.2c37.7,52.8,24.2,143.3,44.1,204.6
		c-0.6,18.2,1.3,33,4.6,45.1h-72.9V1344.7z"/>
	<path class="st10" d="M9.1,594c16.2-2,52.8,29.4,69,49.7s59.9,23.3,78.1,54.8c18.3,31.4,5.1,58.8,52.8,84.2s75.6,55.4,112.6,113.6
		c28.4,44.6,63.9,129.9,69,179.6c5.1,49.7,32.5,98.4,65.9,149.1c18.5,28.1,25.5,79.4,28.1,119.6H405c-20.2-26.6-53.8-56-61.1-81.1
		c-10.1-34.5-4.1-90.3-26.4-123.8s-86.2-86.2-88.3-121.7c-2-35.5-41.6-76.1-73-95.4c-31.4-19.3-34.5-79.1-52.8-107.5
		s-57.8-40.6-59.9-73c-2-32.5-7.1-57.8-25.4-75.1C-0.1,649.8-7.2,596.1,9.1,594z"/>
	<g>
		<g>
			<defs>
				<polygon id="SVGID_23_" points="1,1 2,1 1,2 				"/>
			</defs>
			<defs>
				<polygon id="SVGID_24_" points="-1,-1 -2,-1 -1,-2 				"/>
			</defs>
			<clipPath id="SVGID_25_">
				<use xlink:href="#SVGID_23_"  style="overflow:visible;"/>
			</clipPath>
			<clipPath id="SVGID_26_" class="st11">
				<use xlink:href="#SVGID_24_"  style="overflow:visible;"/>
			</clipPath>
			
				<linearGradient id="SVGID_27_" gradientUnits="userSpaceOnUse" x1="5362.5981" y1="486.5198" x2="5490.3306" y2="443.2557" gradientTransform="matrix(-1 0 0 -1 5617.1519 1440)">
				<stop  offset="0" style="stop-color:#FFFFFF"/>
				<stop  offset="1" style="stop-color:#000000"/>
			</linearGradient>
			<path class="st12" d="M4.7,596.3l4.4-2.3c18.3,44.6,48.7,56.8,61.9,89.3s41.6,28.4,61.9,77.1c20.3,48.7,87.2,70,115.7,137
				c28.4,67,65.9,117.7,94.3,257.7c12.9,63.4,38.8,132.7,63.4,189.6H405c-20.2-26.6-53.8-56-61.1-81.1
				c-10.1-34.5-4.1-90.3-26.4-123.8s-86.2-86.2-88.3-121.7c-2-35.5-41.6-76.1-73-95.4c-31.4-19.3-34.5-79.1-52.8-107.5
				s-57.8-40.6-59.9-73c-2-32.5-7.1-57.8-25.4-75.1C1.9,651.6-5.5,607,4.7,596.3z"/>
		</g>
	</g>
	
		<linearGradient id="SVGID_28_" gradientUnits="userSpaceOnUse" x1="5362.5981" y1="486.5198" x2="5490.3306" y2="443.2557" gradientTransform="matrix(-1 0 0 -1 5617.1519 1440)">
		<stop  offset="0" style="stop-color:#246AFC"/>
		<stop  offset="1" style="stop-color:#5F48DC"/>
	</linearGradient>
	<path class="st13" d="M4.7,596.3l4.4-2.3c18.3,44.6,48.7,56.8,61.9,89.3s41.6,28.4,61.9,77.1c20.3,48.7,87.2,70,115.7,137
		c28.4,67,65.9,117.7,94.3,257.7c12.9,63.4,38.8,132.7,63.4,189.6H405c-20.2-26.6-53.8-56-61.1-81.1c-10.1-34.5-4.1-90.3-26.4-123.8
		s-86.2-86.2-88.3-121.7c-2-35.5-41.6-76.1-73-95.4c-31.4-19.3-34.5-79.1-52.8-107.5s-57.8-40.6-59.9-73c-2-32.5-7.1-57.8-25.4-75.1
		C1.9,651.6-5.5,607,4.7,596.3z"/>
	<path class="st14" d="M354.7,1344.7c-17.2-36.6-29.1-78.7-29.1-104.4c0-42.6-3-99.4-18.3-120.7c-15.2-21.3-20.3-46.7-16.2-64.9
		c4.1-18.3-4.1-43.6-9.1-67c-5.1-23.3,1-38.6,1-38.6c7.1,15.2,13.2,16.2,27.4,35.5c14.2,19.3,8.1,28.4,28.4,58.8
		s38.6,61.9,45.7,99.4s35.5,77.1,59.9,112.6c17.1,25,28.1,56.1,34.6,89.2L354.7,1344.7L354.7,1344.7z"/>
	<g>
		<g>
			<defs>
				<polygon id="SVGID_29_" points="1,1 2,1 1,2 				"/>
			</defs>
			<defs>
				<polygon id="SVGID_30_" points="-1,-1 -2,-1 -1,-2 				"/>
			</defs>
			<clipPath id="SVGID_31_">
				<use xlink:href="#SVGID_29_"  style="overflow:visible;"/>
			</clipPath>
			<clipPath id="SVGID_32_" class="st15">
				<use xlink:href="#SVGID_30_"  style="overflow:visible;"/>
			</clipPath>
			
				<linearGradient id="SVGID_33_" gradientUnits="userSpaceOnUse" x1="5260.5889" y1="292.8326" x2="5323.4873" y2="271.5283" gradientTransform="matrix(-1 0 0 -1 5617.1519 1440)">
				<stop  offset="0" style="stop-color:#FFFFFF"/>
				<stop  offset="1" style="stop-color:#000000"/>
			</linearGradient>
			<path class="st16" d="M354.7,1344.7c-17.2-36.6-29.1-78.7-29.1-104.4c0-42.6-3-99.4-18.3-120.7c-15.2-21.3-20.3-46.7-16.2-64.9
				c4.1-18.3-4.1-43.6-9.1-67c-5.1-23.3,1-38.6,1-38.6c5.7,50.4,24.7,45.7,28.1,75.4c3.4,29.8,3.4,50,18.3,70.3s13.5,46.7,33.8,95.4
				c20.3,48.7,57.5,94,64.2,127.1c1.4,6.7,2.9,16.3,4.6,27.3L354.7,1344.7L354.7,1344.7z"/>
		</g>
	</g>
	
		<linearGradient id="SVGID_34_" gradientUnits="userSpaceOnUse" x1="5260.5889" y1="292.8326" x2="5323.4873" y2="271.5283" gradientTransform="matrix(-1 0 0 -1 5617.1519 1440)">
		<stop  offset="0" style="stop-color:#0D1D7E"/>
		<stop  offset="1" style="stop-color:#AFEBF2"/>
	</linearGradient>
	<path class="st17" d="M354.7,1344.7c-17.2-36.6-29.1-78.7-29.1-104.4c0-42.6-3-99.4-18.3-120.7c-15.2-21.3-20.3-46.7-16.2-64.9
		c4.1-18.3-4.1-43.6-9.1-67c-5.1-23.3,1-38.6,1-38.6c5.7,50.4,24.7,45.7,28.1,75.4c3.4,29.8,3.4,50,18.3,70.3s13.5,46.7,33.8,95.4
		c20.3,48.7,57.5,94,64.2,127.1c1.4,6.7,2.9,16.3,4.6,27.3L354.7,1344.7L354.7,1344.7z"/>
	<path class="st1" d="M139.9,979.5c8.1,18.3,34.5,30.4,74.1,47.7c39.6,17.2,58.7,29,94.3,85.2c19.3,30.4,42.6,79.1,58.8,149.1
		c7.4,32,17,61,25.1,83.1h-76.9v-6c0-48.7-68-103.5-84.2-146.1s-45.7-88.3-68-106.5c-22.3-18.3-51.7-67-54.8-95.4
		c-3-28.4-15.2-49.7-15.2-49.7C109.5,946.1,131.8,961.3,139.9,979.5z"/>
	<g>
		<g>
			<defs>
				<polygon id="SVGID_35_" points="1,1 2,1 1,2 				"/>
			</defs>
			<defs>
				<polygon id="SVGID_36_" points="-1,-1 -2,-1 -1,-2 				"/>
			</defs>
			<clipPath id="SVGID_37_">
				<use xlink:href="#SVGID_35_"  style="overflow:visible;"/>
			</clipPath>
			<clipPath id="SVGID_38_" class="st18">
				<use xlink:href="#SVGID_36_"  style="overflow:visible;"/>
			</clipPath>
			
				<linearGradient id="SVGID_39_" gradientUnits="userSpaceOnUse" x1="5349.8745" y1="312.0778" x2="5450.5967" y2="277.9625" gradientTransform="matrix(-1 0 0 -1 5617.1519 1440)">
				<stop  offset="0" style="stop-color:#FFFFFF"/>
				<stop  offset="1" style="stop-color:#000000"/>
			</linearGradient>
			<path class="st19" d="M139.9,1022.1c16.2,30.4,42.6,16.2,89.3,58.8c46.7,42.6,24.3,46.7,65.9,110.6s48.7,89.3,55.8,138
				c0.7,4.5,1.7,9.6,2.9,15.1h-38.4v-6c0-48.7-68-103.5-84.2-146.1s-45.7-88.3-68-106.5c-22.3-18.3-51.7-67-54.8-95.4
				c-3-28.4-15.2-49.7-15.2-49.7C126.7,979.5,123.7,991.7,139.9,1022.1z"/>
		</g>
	</g>
	<path class="st5" d="M139.9,1022.1c16.2,30.4,42.6,16.2,89.3,58.8c46.7,42.6,24.3,46.7,65.9,110.6s48.7,89.3,55.8,138
		c0.7,4.5,1.7,9.6,2.9,15.1h-38.4v-6c0-48.7-68-103.5-84.2-146.1s-45.7-88.3-68-106.5c-22.3-18.3-51.7-67-54.8-95.4
		c-3-28.4-15.2-49.7-15.2-49.7C126.7,979.5,123.7,991.7,139.9,1022.1z"/>
</g>
<g>
	<g>
		<path class="st1" d="M1375.8,770.2c-16.1,30.5-8.1,42.4-4.8,75.5c3.2,33.1-21,39.7-32.3,67.6c-11.3,27.8-3.2,41.1-6.5,75.5
			c-3.2,34.4-16.1,37.1-27.4,68.9c-11.3,31.8,0,75.5,8.1,135.1c5,36.9-6.7,105.2-16.3,151.9h-148.1c11.4-88.4,27.5-230.5,17.6-261.9
			c-14.5-46.4,8.1-123.2,22.6-147s17.7-53,14.5-74.2s11.3-29.1,29-45s17.7-50.3,25.8-79.5c8.1-29.1,46.1-40.7,48.4-66.2
			c3.9-44.5,56.1-85,84.9-85c23.7,21.6-3.4,80.3-8.2,104.2C1378.2,713.9,1391.9,739.7,1375.8,770.2z"/>
		<g>
			<g>
				<defs>
					<polygon id="SVGID_40_" points="1,1 2,1 1,2 					"/>
				</defs>
				<defs>
					<polygon id="SVGID_41_" points="-1,-1 -2,-1 -1,-2 					"/>
				</defs>
				<clipPath id="SVGID_42_">
					<use xlink:href="#SVGID_40_"  style="overflow:visible;"/>
				</clipPath>
				<clipPath id="SVGID_43_" class="st20">
					<use xlink:href="#SVGID_41_"  style="overflow:visible;"/>
				</clipPath>
				
					<linearGradient id="SVGID_44_" gradientUnits="userSpaceOnUse" x1="4177.7236" y1="507.0394" x2="4510.4385" y2="394.3459" gradientTransform="matrix(-1 0 0 -1 5617.1519 1440)">
					<stop  offset="0" style="stop-color:#FFFFFF"/>
					<stop  offset="1" style="stop-color:#000000"/>
				</linearGradient>
				<path class="st21" d="M1375.8,770.2c-16.1,30.5-8.1,42.4-4.8,75.5c3.2,33.1-21,39.7-32.3,67.6c-11.3,27.8-3.2,41.1-6.5,75.5
					c-3.2,34.4-16.1,37.1-27.4,68.9c-11.3,31.8,0,75.5,8.1,135.1c5,36.9-6.7,105.2-16.3,151.9h-94.4c6.2-50.4,11.4-105.4,9.1-133.1
					c-4.8-58.6-21.8-87.4-3.6-126.2c18.1-38.7,48.4-35.8,39.9-88.4c-8.5-52.7-7.3-87.4,36.3-125.2c43.5-37.8,14.5-75.5,16.9-106.3
					s35.1-37.8,41.1-68.5c6-30.8,2.6-68.9,49.4-111.1c23.7,21.6-3.4,80.3-8.2,104.2C1378.2,713.9,1391.9,739.7,1375.8,770.2z"/>
			</g>
		</g>
		
			<linearGradient id="SVGID_45_" gradientUnits="userSpaceOnUse" x1="4177.7236" y1="507.0394" x2="4510.4385" y2="394.3459" gradientTransform="matrix(-1 0 0 -1 5617.1519 1440)">
			<stop  offset="0" style="stop-color:#246AFC"/>
			<stop  offset="1" style="stop-color:#5F48DC"/>
		</linearGradient>
		<path class="st22" d="M1375.8,770.2c-16.1,30.5-8.1,42.4-4.8,75.5c3.2,33.1-21,39.7-32.3,67.6c-11.3,27.8-3.2,41.1-6.5,75.5
			c-3.2,34.4-16.1,37.1-27.4,68.9c-11.3,31.8,0,75.5,8.1,135.1c5,36.9-6.7,105.2-16.3,151.9h-94.4c6.2-50.4,11.4-105.4,9.1-133.1
			c-4.8-58.6-21.8-87.4-3.6-126.2c18.1-38.7,48.4-35.8,39.9-88.4c-8.5-52.7-7.3-87.4,36.3-125.2c43.5-37.8,14.5-75.5,16.9-106.3
			s35.1-37.8,41.1-68.5c6-30.8,2.6-68.9,49.4-111.1c23.7,21.6-3.4,80.3-8.2,104.2C1378.2,713.9,1391.9,739.7,1375.8,770.2z"/>
	</g>
	<g>
		<path class="st23" d="M1196.1,1344.5c18-72.9,15.6-194.2,6.1-227.2c-11.9-41.3,0.1-113.2,6.1-147.1c6-33.9-7-63.6-11.4-85.1
			s17.1-34.7,22-61.2c4.9-26.4-18.6-44.6-23.4-67.7c-4.7-23.1-8.2-73.5-15.1-73.5c0,0-24.4,19.9-36.1,43
			c-11.7,23.2,0.1,59.5-16.7,74.4c-16.8,14.9-25.3,28.1-23.2,59.5c2.1,31.4-7.2,32.2-16.3,67.8c-9.1,35.5,19.2,64.4,18.6,103.2
			c-0.7,38.8-20.3,35.6-37.5,103.3c-12.2,48.1,16,153.4,33.4,210.6L1196.1,1344.5z"/>
		<g>
			<g>
				<defs>
					<polygon id="SVGID_46_" points="1,1 2,1 1,2 					"/>
				</defs>
				<defs>
					<polygon id="SVGID_47_" points="-1,-1 -2,-1 -1,-2 					"/>
				</defs>
				<clipPath id="SVGID_48_">
					<use xlink:href="#SVGID_46_"  style="overflow:visible;"/>
				</clipPath>
				<clipPath id="SVGID_49_" class="st24">
					<use xlink:href="#SVGID_47_"  style="overflow:visible;"/>
				</clipPath>
				
					<linearGradient id="SVGID_50_" gradientUnits="userSpaceOnUse" x1="-529.7509" y1="406.8408" x2="-439.3756" y2="376.2299" gradientTransform="matrix(1.0252 -1.800000e-03 -0.2011 -0.9813 1767.453 1407.4487)">
					<stop  offset="0" style="stop-color:#FFFFFF"/>
					<stop  offset="1" style="stop-color:#000000"/>
				</linearGradient>
				<path class="st25" d="M1196.1,1344.5c18-72.9,15.6-194.2,6.1-227.2c-11.9-41.3,0.1-113.2,6.1-147.1c6-33.9-7-63.6-11.4-85.1
					s17.1-34.7,22-61.2c4.9-26.4-18.6-44.6-23.4-67.7c-4.7-23.1-8.2-73.5-15.1-73.5c0.7,41.3-23.8,43.8-18.2,75.2
					c5.6,31.4,25.9,46.2,1.6,71.1c-24.3,24.8-15.7,33.1-13.8,80.2c1.9,47.1-34.3,53.4-18.3,97.4c18.5,51.2,21.2,99.2,2.1,134.6
					c-23.2,43.1,3.3,116.7-3.3,166.6c3.5,14.8,4.4,26.9,3.6,36.8L1196.1,1344.5z"/>
			</g>
		</g>
		
			<linearGradient id="SVGID_51_" gradientUnits="userSpaceOnUse" x1="-529.7509" y1="406.8408" x2="-439.3756" y2="376.2299" gradientTransform="matrix(1.0252 -1.800000e-03 -0.2011 -0.9813 1767.453 1407.4487)">
			<stop  offset="0" style="stop-color:#246AFC"/>
			<stop  offset="1" style="stop-color:#5F48DC"/>
		</linearGradient>
		<path class="st26" d="M1196.1,1344.5c18-72.9,15.6-194.2,6.1-227.2c-11.9-41.3,0.1-113.2,6.1-147.1c6-33.9-7-63.6-11.4-85.1
			s17.1-34.7,22-61.2c4.9-26.4-18.6-44.6-23.4-67.7c-4.7-23.1-8.2-73.5-15.1-73.5c0.7,41.3-23.8,43.8-18.2,75.2
			c5.6,31.4,25.9,46.2,1.6,71.1c-24.3,24.8-15.7,33.1-13.8,80.2c1.9,47.1-34.3,53.4-18.3,97.4c18.5,51.2,21.2,99.2,2.1,134.6
			c-23.2,43.1,3.3,116.7-3.3,166.6c3.5,14.8,4.4,26.9,3.6,36.8L1196.1,1344.5z"/>
	</g>
	<g>
		<path class="st6" d="M1538.3,721.9c-11.8-1.7-38.4,24.4-50.2,41.2c-11.8,16.8-43.5,19.4-56.8,45.4c-13.3,26.1-3.7,48.8-38.4,69.9
			c-34.7,21-55,46-81.9,94.3c-20.7,37-46.5,107.7-50.2,149c-3.7,41.2-23.6,81.6-48,123.7c-13.5,23.3-18.6,65.8-20.5,99.3h57.9
			c14.7-22.1,39.1-46.5,44.5-67.3c7.4-28.6,3-74.9,19.2-102.7c16.2-27.8,62.7-71.5,64.2-101s30.3-63.1,53.1-79.1
			c22.9-16,25.1-65.6,38.4-89.2c13.3-23.6,42.1-33.7,43.5-60.6c1.5-26.9,5.2-48,18.4-62.3C1544.9,768.2,1550.1,723.6,1538.3,721.9z"
			/>
		<g>
			<g>
				<defs>
					<polygon id="SVGID_52_" points="1,1 2,1 1,2 					"/>
				</defs>
				<defs>
					<polygon id="SVGID_53_" points="-1,-1 -2,-1 -1,-2 					"/>
				</defs>
				<clipPath id="SVGID_54_">
					<use xlink:href="#SVGID_52_"  style="overflow:visible;"/>
				</clipPath>
				<clipPath id="SVGID_55_" class="st27">
					<use xlink:href="#SVGID_53_"  style="overflow:visible;"/>
				</clipPath>
				
					<linearGradient id="SVGID_56_" gradientUnits="userSpaceOnUse" x1="-387.3318" y1="425.3995" x2="-250.1863" y2="378.9471" gradientTransform="matrix(0.8768 0 0 -1 1670.0297 1439.9977)">
					<stop  offset="0" style="stop-color:#FFFFFF"/>
					<stop  offset="1" style="stop-color:#000000"/>
				</linearGradient>
				<path class="st28" d="M1541.5,723.8l-3.2-1.9c-13.3,37-35.4,47.1-45,74.1c-9.6,26.9-30.3,23.6-45,64
					c-14.8,40.4-73.2,55.4-84.1,113.6c-12.9,68.5-80.1,59.7-77.6,188.1c1.1,56.1-38.8,61.3-58.3,110.1c-13.3,33.4-9.2,72.8-9.2,72.8
					h31.3c14.7-22.1,39.1-46.4,44.5-67.2c7.4-28.6,3-74.9,19.2-102.7c16.2-27.8,62.7-71.5,64.2-101s30.3-63.1,53.1-79.1
					c22.9-16,25.1-65.6,38.4-89.2c13.3-23.6,42.1-33.7,43.5-60.6c1.5-26.9,5.2-48,18.4-62.3C1543.5,769.7,1548.9,732.7,1541.5,723.8
					z"/>
			</g>
		</g>
		
			<linearGradient id="SVGID_57_" gradientUnits="userSpaceOnUse" x1="-387.3318" y1="425.3995" x2="-250.1863" y2="378.9471" gradientTransform="matrix(0.8768 0 0 -1 1670.0297 1439.9977)">
			<stop  offset="0" style="stop-color:#246AFC"/>
			<stop  offset="1" style="stop-color:#5F48DC"/>
		</linearGradient>
		<path class="st29" d="M1541.5,723.8l-3.2-1.9c-13.3,37-35.4,47.1-45,74.1c-9.6,26.9-30.3,23.6-45,64
			c-14.8,40.4-73.2,55.4-84.1,113.6c-12.9,68.5-80.1,59.7-77.6,188.1c1.1,56.1-38.8,61.3-58.3,110.1c-13.3,33.4-9.2,72.8-9.2,72.8
			h31.3c14.7-22.1,39.1-46.4,44.5-67.2c7.4-28.6,3-74.9,19.2-102.7c16.2-27.8,62.7-71.5,64.2-101s30.3-63.1,53.1-79.1
			c22.9-16,25.1-65.6,38.4-89.2c13.3-23.6,42.1-33.7,43.5-60.6c1.5-26.9,5.2-48,18.4-62.3C1543.5,769.7,1548.9,732.7,1541.5,723.8z"
			/>
	</g>
	<g>
		<path class="st1" d="M1483,1344.7c15.5-30.4,26.2-65.3,26.2-86.6c0-35.4,2.7-82.5,16.4-100.2c13.7-17.7,18.2-38.7,14.6-53.9
			c-3.6-15.2,3.6-36.2,8.2-55.5c4.6-19.4-0.9-32-0.9-32c-6.4,12.6-11.9,13.5-24.6,29.5c-12.8,16-7.3,23.6-25.5,48.8
			c-18.2,25.3-34.7,51.3-41,82.5c-6.4,31.1-31.9,64-53.8,93.4c-15.4,20.7-25.3,46.5-31.1,74L1483,1344.7L1483,1344.7z"/>
		<g>
			<g>
				<defs>
					<polygon id="SVGID_58_" points="1,1 2,1 1,2 					"/>
				</defs>
				<defs>
					<polygon id="SVGID_59_" points="-1,-1 -2,-1 -1,-2 					"/>
				</defs>
				<clipPath id="SVGID_60_">
					<use xlink:href="#SVGID_58_"  style="overflow:visible;"/>
				</clipPath>
				<clipPath id="SVGID_61_" class="st30">
					<use xlink:href="#SVGID_59_"  style="overflow:visible;"/>
				</clipPath>
				
					<linearGradient id="SVGID_62_" gradientUnits="userSpaceOnUse" x1="228.7285" y1="259.1012" x2="280.9101" y2="241.4269" gradientTransform="matrix(1.0835 0 0 -1 1233.5103 1439.9974)">
					<stop  offset="0" style="stop-color:#FFFFFF"/>
					<stop  offset="1" style="stop-color:#000000"/>
				</linearGradient>
				<path class="st31" d="M1483,1344.7c15.5-30.4,26.2-65.3,26.2-86.6c0-35.4,2.7-82.5,16.4-100.2c13.7-17.7,18.2-38.7,14.6-53.9
					c-3.6-15.2,3.6-36.2,8.2-55.5c4.6-19.4-0.9-32-0.9-32c-5.2,41.8-22.2,37.9-25.2,62.6s-3,41.5-16.4,58.4
					c-13.4,16.8-12.2,38.7-30.4,79.1c-18.2,40.4-51.7,78-57.8,105.5c-1.2,5.5-2.6,13.5-4.1,22.7L1483,1344.7L1483,1344.7z"/>
			</g>
		</g>
		
			<linearGradient id="SVGID_63_" gradientUnits="userSpaceOnUse" x1="228.7285" y1="259.1012" x2="280.9101" y2="241.4269" gradientTransform="matrix(1.0835 0 0 -1 1233.5103 1439.9974)">
			<stop  offset="0" style="stop-color:#0D1D7E"/>
			<stop  offset="1" style="stop-color:#AFEBF2"/>
		</linearGradient>
		<path class="st32" d="M1483,1344.7c15.5-30.4,26.2-65.3,26.2-86.6c0-35.4,2.7-82.5,16.4-100.2c13.7-17.7,18.2-38.7,14.6-53.9
			c-3.6-15.2,3.6-36.2,8.2-55.5c4.6-19.4-0.9-32-0.9-32c-5.2,41.8-22.2,37.9-25.2,62.6s-3,41.5-16.4,58.4
			c-13.4,16.8-12.2,38.7-30.4,79.1c-18.2,40.4-51.7,78-57.8,105.5c-1.2,5.5-2.6,13.5-4.1,22.7L1483,1344.7L1483,1344.7z"/>
	</g>
	<g>
		<path class="st10" d="M1039.5,1344.7c-15.3-43.1-25.8-92.5-25.8-122.8c0-50.1-2.7-116.9-16.2-142s-18-54.9-14.4-76.4
			s-3.6-51.3-8.1-78.8c-4.5-27.4,0.9-45.3,0.9-45.3c6.3,17.9,11.7,19.1,24.3,41.8s7.2,33.4,25.2,69.2c18,35.8,34.2,72.8,40.5,116.9
			c6.3,44.2,31.5,90.7,53.1,132.5c15.2,29.4,24.9,65.9,30.7,104.9H1039.5z"/>
		<g>
			<g>
				<defs>
					<polygon id="SVGID_64_" points="1,1 2,1 1,2 					"/>
				</defs>
				<defs>
					<polygon id="SVGID_65_" points="-1,-1 -2,-1 -1,-2 					"/>
				</defs>
				<clipPath id="SVGID_66_">
					<use xlink:href="#SVGID_64_"  style="overflow:visible;"/>
				</clipPath>
				<clipPath id="SVGID_67_" class="st33">
					<use xlink:href="#SVGID_65_"  style="overflow:visible;"/>
				</clipPath>
				
					<linearGradient id="SVGID_68_" gradientUnits="userSpaceOnUse" x1="4369.4463" y1="328.2085" x2="4441.8618" y2="303.6807" gradientTransform="matrix(-1.0638 0 0 -1 5690.9941 1439.995)">
					<stop  offset="0" style="stop-color:#FFFFFF"/>
					<stop  offset="1" style="stop-color:#000000"/>
				</linearGradient>
				<path class="st34" d="M1039.5,1344.7c-15.3-43.1-25.8-92.5-25.8-122.8c0-50.1-2.7-116.9-16.2-142s-18-54.9-14.4-76.4
					s-3.6-51.3-8.1-78.8c-4.5-27.4,0.9-45.3,0.9-45.3c5.1,59.3,21.9,53.7,24.9,88.7s3,58.9,16.2,82.7c13.2,23.9,12,54.9,30,112.2
					c18,57.3,51,110.6,56.9,149.6c1.2,7.8,2.6,19.1,4.1,32.1L1039.5,1344.7L1039.5,1344.7z"/>
			</g>
		</g>
		
			<linearGradient id="SVGID_69_" gradientUnits="userSpaceOnUse" x1="4369.4463" y1="328.2085" x2="4441.8618" y2="303.6807" gradientTransform="matrix(-1.0638 0 0 -1 5690.9941 1439.995)">
			<stop  offset="0" style="stop-color:#0D1D7E"/>
			<stop  offset="1" style="stop-color:#AFEBF2"/>
		</linearGradient>
		<path class="st35" d="M1039.5,1344.7c-15.3-43.1-25.8-92.5-25.8-122.8c0-50.1-2.7-116.9-16.2-142s-18-54.9-14.4-76.4
			s-3.6-51.3-8.1-78.8c-4.5-27.4,0.9-45.3,0.9-45.3c5.1,59.3,21.9,53.7,24.9,88.7s3,58.9,16.2,82.7c13.2,23.9,12,54.9,30,112.2
			c18,57.3,51,110.6,56.9,149.6c1.2,7.8,2.6,19.1,4.1,32.1L1039.5,1344.7L1039.5,1344.7z"/>
	</g>
	<g>
		<path class="st10" d="M1475,1041.7c-6.5,15.1-27.7,25.2-59.5,39.6c-31.8,14.3-47.2,24.1-75.8,70.7
			c-15.5,25.2-34.2,65.6-47.3,123.7c-6,26.6-13.6,50.6-20.2,69h61.8v-5c0-40.4,54.6-85.8,67.7-121.2c13-35.3,36.7-73.2,54.6-88.4
			c17.9-15.2,41.6-55.5,44-79.1s12.2-41.2,12.2-41.2C1499.5,1014,1481.5,1026.6,1475,1041.7z"/>
		<g>
			<g>
				<defs>
					<polygon id="SVGID_70_" points="1,1 2,1 1,2 					"/>
				</defs>
				<defs>
					<polygon id="SVGID_71_" points="-1,-1 -2,-1 -1,-2 					"/>
				</defs>
				<clipPath id="SVGID_72_">
					<use xlink:href="#SVGID_70_"  style="overflow:visible;"/>
				</clipPath>
				<clipPath id="SVGID_73_" class="st36">
					<use xlink:href="#SVGID_71_"  style="overflow:visible;"/>
				</clipPath>
				
					<linearGradient id="SVGID_74_" gradientUnits="userSpaceOnUse" x1="-515.8024" y1="278.9943" x2="-403.983" y2="241.12" gradientTransform="matrix(0.8076 0 0 -1 1785.4247 1439.9978)">
					<stop  offset="0" style="stop-color:#FFFFFF"/>
					<stop  offset="1" style="stop-color:#000000"/>
				</linearGradient>
				<path class="st37" d="M1475,1077.1c-13,25.3-34.2,13.5-71.8,48.8c-37.5,35.4-19.6,38.7-53,91.7s-39.1,74.1-44.9,114.5
					c-0.5,3.7-1.3,8-2.4,12.6h30.9v-5c0-40.4,54.6-85.8,67.7-121.2c13-35.3,36.7-73.2,54.6-88.4c17.9-15.2,41.6-55.5,44-79.1
					s12.2-41.2,12.2-41.2C1485.6,1041.7,1488,1051.8,1475,1077.1z"/>
			</g>
		</g>
		
			<linearGradient id="SVGID_75_" gradientUnits="userSpaceOnUse" x1="-515.8024" y1="278.9943" x2="-403.983" y2="241.12" gradientTransform="matrix(0.8076 0 0 -1 1785.4247 1439.9978)">
			<stop  offset="0" style="stop-color:#246AFC"/>
			<stop  offset="1" style="stop-color:#5F48DC"/>
		</linearGradient>
		<path class="st38" d="M1475,1077.1c-13,25.3-34.2,13.5-71.8,48.8c-37.5,35.4-19.6,38.7-53,91.7s-39.1,74.1-44.9,114.5
			c-0.5,3.7-1.3,8-2.4,12.6h30.9v-5c0-40.4,54.6-85.8,67.7-121.2c13-35.3,36.7-73.2,54.6-88.4c17.9-15.2,41.6-55.5,44-79.1
			s12.2-41.2,12.2-41.2C1485.6,1041.7,1488,1051.8,1475,1077.1z"/>
	</g>
</g>
<g id="Calque_2">
	<path class="st39" d="M1382.6,773.6c-8.7-14.3-38.9-13.9-38.9-13.9c-27.5,40.9-93.7-2.5-93.7-2.5c-49.2,22-79.2-48.1-79.2-48.1
		c-66.2-9.9-55.9-79.4-55.9-79.4c-32.9-6.6-23.7-66.1-23.7-66.1s18.3-15,9.3-25.9c-5.7-7-6.1-27-5.6-40.6
		c-42.9-13.1-87.6-19.7-132.5-19.7c-250.9,0-454.3,203.4-454.3,454.3S711.5,1386,962.4,1386s454.3-203.4,454.3-454.3
		c0.1-54.5-9.7-108.6-28.9-159.6C1385.5,774.7,1383.7,775.4,1382.6,773.6z"/>
	<path class="st40" d="M1382.6,773.6c-8.7-14.3-38.9-13.9-38.9-13.9c-27.5,40.9-93.7-2.5-93.7-2.5c-49.2,22-79.2-48.1-79.2-48.1
		c-66.2-9.9-55.9-79.4-55.9-79.4c-32.9-6.6-23.7-66.1-23.7-66.1s18.3-15,9.3-25.9c-5.7-7-6.1-27-5.6-40.6
		c-42.9-13.1-87.6-19.7-132.5-19.7c-250.9,0-454.3,203.4-454.3,454.3S711.5,1386,962.4,1386s454.3-203.4,454.3-454.3
		c0.1-54.5-9.7-108.6-28.9-159.6C1385.5,774.7,1383.7,775.4,1382.6,773.6z"/>
	<path class="st39" d="M1355.7,771.8c-8.2-13.6-37-13.2-37-13.2c-26.2,38.9-89.1-2.4-89.1-2.4c-46.8,20.9-75.3-45.7-75.3-45.7
		c-62.9-9.4-53.2-75.5-53.2-75.5c-31.3-6.3-22.5-62.9-22.5-62.9s17.4-14.2,8.8-24.7c-5.4-6.6-5.8-25.6-5.3-38.6
		c-40.8-12.4-83.3-18.7-126-18.7c-238.6,0-432,193.4-432,432s193.4,432,432,432s432-193.4,432-432c0.1-51.8-9.2-103.3-27.5-151.8
		C1358.4,772.9,1356.7,773.5,1355.7,771.8z"/>
	<path class="st1" d="M904.5,745.5c0,0-74.5-47.4-145.6,0c-24.9,16.6-37.3,40.2-43,64c-10.1,42.2,1,86.7,27.9,120.7l160.9,203.2
		c11.3,14.4,29.8,21.2,47.7,17.4c0.3-0.1,0.7-0.2,1.1-0.2c12.8-3.2,23.8-11.5,30.3-23L1095.6,931c20.7-35.8,29.2-77.3,24.2-118.4
		c-5.2-40.4-24.7-83-79.8-97.6C1039.9,715,975.6,687.9,904.5,745.5z"/>
	<path class="st40" d="M904.5,745.5c0,0-74.5-47.4-145.6,0c-24.9,16.6-37.3,40.2-43,64c-10.1,42.2,1,86.7,27.9,120.7l160.9,203.2
		c11.3,14.4,29.8,21.2,47.7,17.4c0.3-0.1,0.7-0.2,1.1-0.2c12.8-3.2,23.8-11.5,30.3-23L1095.6,931c20.7-35.8,29.2-77.3,24.2-118.4
		c-5.2-40.4-24.7-83-79.8-97.6C1039.9,715,975.6,687.9,904.5,745.5z"/>
	<path class="st1" d="M905.2,757c0,0-69.9-44.5-136.6,0c-23.3,15.6-35,37.7-40.3,60c-9.4,39.6,0.9,81.3,26.2,113.2l150.9,190.6
		c10.6,13.6,27.9,19.9,44.7,16.3c0.3-0.1,0.7-0.1,1-0.2c12.1-3,22.3-10.8,28.4-21.6l105-184.3c19.4-33.6,27.4-72.5,22.7-111
		c-4.9-37.9-23.1-77.9-74.9-91.6C1032.3,728.4,972,703,905.2,757z"/>
	<path class="st40" d="M908,833.2c0,0-34-21.6-66.5,0c-10.1,6.8-17.1,17.3-19.6,29.2c-4.4,19.3,0.3,39.6,12.7,55.1
		c0,0,87.1,102.5,95.2,100.7c0.2,0,0.3-0.1,0.5-0.1c5.9-1.4,64.9-100.2,64.9-100.2c9.4-16.3,13.3-35.3,11-54
		c-2.4-18.4-11.3-37.9-36.4-44.5C969.8,819.3,940.4,806.9,908,833.2z"/>
	<polyline class="st40" points="695.6,995.2 705.1,1011.1 724.2,1042.9 730.5,1065.1 717.8,1084.2 733.7,1122.3 740,1144.5 
		727.3,1157.2 752.8,1176.3 	"/>
	<polyline class="st40" points="1162.6,855.4 1162.6,880.9 1146.7,922.2 1137.1,944.4 1153,973 1159.4,992 1184.8,1001.6 
		1194.3,1017.5 1194.3,1055.6 	"/>
	<path class="st40" d="M1324.6,880.9l-25.4,15.9c0,0-12.7,6.4-12.7,9.5v25.4"/>
	<polyline class="st40" points="1210.2,791.9 1216.6,823.7 1210.2,845.9 	"/>
	<polyline class="st40" points="1235.6,1077.8 1216.6,1106.4 1194.3,1125.5 1194.3,1138.2 1207,1154.1 1207,1173.1 1197.5,1192.2 	
		"/>
	<polyline class="st40" points="1054.6,537.8 1022.8,537.8 997.4,560 956.1,582.2 937,598.1 937,604.5 895.7,626.7 883,648.9 	"/>
	<path class="st40" d="M711.5,591.8l-28.6,57.2l-9.5,22.2l-22.2,28.6c0,0-15.9,28.6-19.1,31.8s-25.4,9.5-25.4,9.5l31.8,31.8"/>
	<polyline class="st40" points="584.4,811 578,852.3 584.4,877.7 584.4,922.2 565.3,1004.7 584.4,1027 606.6,1055.6 	"/>
	<polyline class="st40" points="632,830 651.1,839.6 663.8,880.9 689.2,874.5 701.9,896.7 	"/>
	<polyline class="st40" points="981.5,1243 1032.3,1236.7 1054.6,1214.4 1086.3,1214.4 	"/>
	<polyline class="st40" points="673.3,1176.3 692.4,1198.5 724.2,1208.1 746.4,1214.4 752.8,1249.4 	"/>
	<polyline class="st40" points="1048.2,1068.3 1070.4,1052.4 1080,1027 1099,1023.8 1108.6,992 	"/>
	<path class="st41" d="M477.7,270.1h53.2c35,0,63.3,28.3,63.3,63.3l0,0v116.5l0,0H414.4l0,0V333.4
		C414.4,298.4,442.7,270.1,477.7,270.1C477.7,270.1,477.7,270.1,477.7,270.1z"/>
	<path class="st42" d="M532.3,1269.2c0,0-5.7,35.8-15.1,41.5c-9.4,5.7,49,18.8,49,18.8l9.4-56.5L532.3,1269.2z"/>
	<path class="st41" d="M602,860.2l20.7,24.5l-9.4,84.8l-7.5,167.8c0,0,15.1,145.1,0,148.9c-15.1,3.8-82.9,1.9-81.1-7.5
		c1.9-9.4,3.8-17,7.5-30.2c3.8-13.2-3.8-60.3-3.8-60.3l9.4-52.8L504,907.3L602,860.2z"/>
	<path class="st41" d="M534.2,1305.1c0,0-20.7-3.8-22.6,0c-1.9,3.8-37.7,43.4-43.4,43.4c-5.7,0-47.1,37.7-3.8,39.6s115-32,115-32
		s-10.5-48-10-45.7C570,1312.6,534.2,1314.5,534.2,1305.1z"/>
	<path class="st42" d="M511.6,1218.4c0,0,52.8,58.4,54.7,64.1c1.9,5.7,30.2,0,30.2,0l11.3-37.7l-9.4-13.2l-52.8-43.4L511.6,1218.4z"
		/>
	<path class="st41" d="M586.9,1261.7l-27.3,25.7c0,0,34.9,53.4,34.9,59.1c0,5.7,1.9,52.8,20.7,45.2c18.8-7.5,20.7-82.9,20.7-82.9
		s-1.9-77.3-13.2-82.9c-11.3-5.7-36.1-3.9-36.1-3.9S602,1259.8,586.9,1261.7z"/>
	<path class="st41" d="M430.5,692.4c0,0-9.4,30.2-11.3,37.7S406,758.4,406,790.5c0,32,3.8,69.7,0,73.5
		c-3.8,3.8-64.1,214.9-37.7,237.5c26.4,22.6,113.1,98,118.8,107.4s7.5,32,18.8,28.3c11.3-3.8,54.7-41.5,56.5-49
		c1.9-7.5-24.5-20.7-24.5-20.7s-52.8-77.3-66-75.4s-11.3-9.4-9.4-15.1c1.9-5.7,5.7-9.4,0-9.4c-5.7,0-1.9-15.1,0-22.6
		c1.9-7.5,45.2-109.3,45.2-109.3l115-50.9c0,0-5.7-137.6-47.1-175.3l-9.4-22.6C566.2,686.8,460.7,679.2,430.5,692.4z"/>
	<path class="st42" d="M477.6,394.6c0,0,9.4,66-13.2,69.7c-22.6,3.8-41.5,1.9-41.5,3.8c0,1.9,56.5,60.3,56.5,60.3l52.8-3.8
		l47.1-50.9c0,0-43.4-7.5-43.4-33.9s-1.9-45.2-1.9-45.2H477.6z"/>
	<path class="st40" d="M477.6,394.6c0,0,9.4,66-13.2,69.7c-22.6,3.8-41.5,1.9-41.5,3.8c0,1.9,56.5,60.3,56.5,60.3l52.8-3.8
		l47.1-50.9c0,0-43.4-7.5-43.4-33.9s-1.9-45.2-1.9-45.2H477.6z"/>
	<circle class="st42" cx="506.8" cy="363.5" r="58.4"/>
	<path class="st43" d="M455,458.7c0,0-73.5,9.4-79.2,33.9c-5.7,24.5,37.7,177.2,43.4,190.4c5.7,13.2,3.8,22.6,3.8,22.6
		c17.3-12.9,39.3-17.7,60.3-13.2c35.8,7.5,86.7,3.8,86.7,3.8s17-69.7,20.7-77.3c3.8-7.5,18.8-49,18.8-60.3
		c0-11.3,22.6-58.4,22.6-58.4s-11.3-33.9-52.8-32c0,0-18.1-8.1-23.2-2.2c-5.1,5.9-33.4,32.3-69.2,21
		C451.2,475.7,455,458.7,455,458.7z"/>
	<path class="st43" d="M396.6,490.7h-20.7l-11.3,148.9c0,0,41.5,11.3,47.1,3.8C417.3,635.9,396.6,490.7,396.6,490.7z"/>
	<path class="st43" d="M596.4,490.7l35.8,9.4c0,0,26.4,96.1,28.3,98c1.9,1.9,3.8,13.2,3.8,13.2s0,1.9,3.8,7.5
		c3.8,5.7,9.4,1.9,5.7,9.4c-3.8,7.5-9.4,3.8-5.7,11.3c3.8,7.5,1.9,28.3,1.9,28.3s-9.4-35.8-43.4-26.4l-22.6-101.8L596.4,490.7z"/>
	<polygon class="st41" points="552.5,349.3 461.7,349.3 441.1,302.1 567.9,302.1 	"/>
	
		<ellipse transform="matrix(0.9605 -0.2783 0.2783 0.9605 -85.9436 138.9368)" class="st44" cx="446.4" cy="372.2" rx="4.6" ry="12.2"/>
	
		<ellipse transform="matrix(0.2783 -0.9605 0.9605 0.2783 52.6028 814.3279)" class="st44" cx="568.2" cy="372.2" rx="12.2" ry="4.6"/>
	<circle class="st39" cx="557.2" cy="588.6" r="33.9"/>
	<circle class="st40" cx="557.2" cy="588.6" r="33.9"/>
	<circle class="st39" cx="557.2" cy="588.6" r="30.6"/>
	<path class="st40" d="M555.8,571.3c0,0-7.8-5-15.2,0c-2.3,1.6-3.9,4-4.5,6.7c-1,4.4,0.1,9.1,2.9,12.6l16.8,21.2
		c1.2,1.5,3.1,2.2,5,1.8l0.1,0c1.3-0.3,2.5-1.2,3.2-2.4l11.7-20.5c2.2-3.7,3.1-8.1,2.5-12.4c-0.2-4.9-3.6-9-8.3-10.2
		C570,568.1,563.2,565.3,555.8,571.3z"/>
	<path class="st1" d="M555.9,572.5c0,0-7.3-4.6-14.3,0c-2.2,1.5-3.7,3.7-4.2,6.3c-0.9,4.2,0.1,8.5,2.7,11.8l15.8,19.9
		c1.1,1.4,2.9,2.1,4.7,1.7l0.1,0c1.3-0.3,2.3-1.1,3-2.3l11-19.3c2-3.5,2.9-7.6,2.4-11.6c-0.2-4.6-3.4-8.4-7.8-9.6
		C569.2,569.5,562.9,566.9,555.9,572.5z"/>
	<path class="st40" d="M556.2,580.5c-2.1-1.3-4.8-1.3-6.9,0c-1.1,0.7-1.8,1.8-2.1,3.1c-0.5,2,0,4.1,1.3,5.8c0,0,9.1,10.7,10,10.5
		l0.1,0c0.6-0.1,6.8-10.5,6.8-10.5c1-1.7,1.4-3.7,1.2-5.6c-0.1-2.2-1.7-4.1-3.8-4.7C560.4,578.3,557.9,578.9,556.2,580.5z"/>
	<circle class="st39" cx="527" cy="607.5" r="33.9"/>
	<circle class="st40" cx="527" cy="607.5" r="33.9"/>
	<circle class="st39" cx="527" cy="607.5" r="30.6"/>
	<path class="st40" d="M525.6,590.2c0,0-7.8-5-15.2,0c-2.3,1.6-3.9,4-4.5,6.7c-1,4.4,0.1,9.1,2.9,12.6l16.8,21.2
		c1.2,1.5,3.1,2.2,5,1.8l0.1,0c1.3-0.3,2.5-1.2,3.2-2.4l11.7-20.5c2.2-3.7,3.1-8.1,2.5-12.4c-0.2-4.9-3.6-9-8.3-10.2
		C539.8,587,533.1,584.2,525.6,590.2z"/>
	<path class="st1" d="M525.7,591.4c0,0-7.3-4.6-14.3,0c-2.2,1.5-3.7,3.7-4.2,6.3c-0.9,4.2,0.1,8.5,2.7,11.8l15.8,19.9
		c1.1,1.4,2.9,2.1,4.7,1.7l0.1,0c1.3-0.3,2.3-1.1,3-2.3l11-19.3c2-3.5,2.9-7.6,2.4-11.6c-0.2-4.6-3.4-8.4-7.8-9.6
		C539,588.4,532.7,585.7,525.7,591.4z"/>
	<path class="st40" d="M526,599.4c-2.1-1.3-4.8-1.3-6.9,0c-1.1,0.7-1.8,1.8-2.1,3.1c-0.5,2,0,4.1,1.3,5.8c0,0,9.1,10.7,10,10.5
		l0.1,0c0.6-0.1,6.8-10.5,6.8-10.5c1-1.7,1.4-3.7,1.2-5.6c-0.1-2.2-1.7-4.1-3.8-4.7C530.2,597.2,527.7,597.7,526,599.4z"/>
	<path class="st39" d="M501.1,522.6c-0.8-1.4-3.7-1.3-3.7-1.3c-2.6,3.9-8.9-0.2-8.9-0.2c-4.7,2.1-7.6-4.6-7.6-4.6
		c-6.3-0.9-5.3-7.6-5.3-7.6c-3.1-0.6-2.3-6.3-2.3-6.3s1.7-1.4,0.9-2.5c-0.5-1.2-0.7-2.6-0.5-3.9c-22.9-7-47.1,5.9-54.1,28.8
		c-7,22.9,5.9,47.1,28.8,54.1c22.9,7,47.1-5.9,54.1-28.8c2.8-9.1,2.5-18.9-0.9-27.8C501.4,522.7,501.2,522.8,501.1,522.6z"/>
	<path class="st40" d="M501.1,522.6c-0.8-1.4-3.7-1.3-3.7-1.3c-2.6,3.9-8.9-0.2-8.9-0.2c-4.7,2.1-7.6-4.6-7.6-4.6
		c-6.3-0.9-5.3-7.6-5.3-7.6c-3.1-0.6-2.3-6.3-2.3-6.3s1.7-1.4,0.9-2.5c-0.5-1.2-0.7-2.6-0.5-3.9c-22.9-7-47.1,5.9-54.1,28.8
		c-7,22.9,5.9,47.1,28.8,54.1c22.9,7,47.1-5.9,54.1-28.8c2.8-9.1,2.5-18.9-0.9-27.8C501.4,522.7,501.2,522.8,501.1,522.6z"/>
	<path class="st39" d="M498.5,522.5c-0.8-1.3-3.5-1.3-3.5-1.3c-2.5,3.7-8.5-0.2-8.5-0.2c-4.5,2-7.2-4.4-7.2-4.4
		c-6-0.9-5.1-7.2-5.1-7.2c-3-0.6-2.1-6-2.1-6s1.7-1.4,0.8-2.4c-0.5-1.2-0.7-2.4-0.5-3.7c-21.8-6.6-44.8,5.7-51.4,27.4
		c-6.6,21.8,5.7,44.8,27.4,51.4c21.8,6.6,44.8-5.7,51.4-27.4c2.6-8.7,2.3-18-0.8-26.5C498.8,522.6,498.6,522.6,498.5,522.5z"/>
	<path class="st1" d="M455.5,520c0,0-7.1-4.5-13.9,0c-2.1,1.4-3.6,3.6-4.1,6.1c-0.9,4,0.1,8.3,2.7,11.5l15.4,19.4
		c1.1,1.4,2.8,2,4.6,1.7l0.1,0c1.2-0.3,2.3-1.1,2.9-2.2l10.7-18.8c2-3.4,2.8-7.4,2.3-11.3c-0.2-4.4-3.3-8.2-7.6-9.3
		C468.4,517,462.3,514.5,455.5,520z"/>
	<path class="st40" d="M455.5,520c0,0-7.1-4.5-13.9,0c-2.1,1.4-3.6,3.6-4.1,6.1c-0.9,4,0.1,8.3,2.7,11.5l15.4,19.4
		c1.1,1.4,2.8,2,4.6,1.7l0.1,0c1.2-0.3,2.3-1.1,2.9-2.2l10.7-18.8c2-3.4,2.8-7.4,2.3-11.3c-0.2-4.4-3.3-8.2-7.6-9.3
		C468.4,517,462.3,514.5,455.5,520z"/>
	<path class="st1" d="M455.6,521c0,0-6.7-4.2-13,0c-2,1.3-3.4,3.4-3.8,5.7c-0.9,3.8,0.1,7.8,2.5,10.8l14.4,18.2
		c1,1.3,2.7,1.9,4.3,1.6l0.1,0c1.2-0.3,2.1-1,2.7-2.1l10-17.6c1.9-3.2,2.6-6.9,2.2-10.6c-0.2-4.2-3.1-7.7-7.1-8.7
		C467.7,518.3,461.9,515.9,455.6,521z"/>
	<path class="st40" d="M455.8,528.3c-1.9-1.2-4.4-1.2-6.3,0c-1,0.7-1.6,1.6-1.9,2.8c-0.4,1.8,0,3.8,1.2,5.3c0,0,8.3,9.8,9.1,9.6l0,0
		c2.2-3.1,4.3-6.3,6.2-9.6c0.9-1.6,1.3-3.4,1.1-5.2c-0.1-2-1.5-3.7-3.5-4.3C459.7,526.3,457.4,526.9,455.8,528.3z"/>
	<polyline class="st40" points="435.6,543.8 436.5,545.3 438.3,548.3 438.9,550.5 437.7,552.3 439.2,555.9 439.8,558 438.6,559.2 
		441,561.1 	"/>
	<polyline class="st40" points="480.1,530.4 480.1,532.9 478.6,536.8 477.7,538.9 479.2,541.7 479.8,543.5 482.2,544.4 483.1,545.9 
		483.1,549.5 	"/>
	<path class="st40" d="M495.6,532.9l-2.4,1.5c0,0-1.2,0.6-1.2,0.9v2.4"/>
	<polyline class="st40" points="484.7,524.4 485.3,527.4 484.7,529.5 	"/>
	<polyline class="st40" points="487.1,551.7 485.3,554.4 483.1,556.2 483.1,557.4 484.4,558.9 484.4,560.8 483.5,562.6 	"/>
	<polyline class="st40" points="469.8,500.1 466.8,500.1 464.4,502.2 460.4,504.4 458.6,505.9 458.6,506.5 454.7,508.6 453.4,510.7 
			"/>
	<path class="st40" d="M437.1,505.3l-2.7,5.5l-0.9,2.1l-2.1,2.7c0,0-1.5,2.7-1.8,3c-0.8,0.4-1.6,0.7-2.4,0.9l3,3"/>
	<polyline class="st40" points="424.9,526.2 424.3,530.1 424.9,532.6 424.9,536.8 423.1,544.7 424.9,546.8 427.1,549.5 	"/>
	<polyline class="st40" points="429.5,528 431.3,528.9 432.5,532.9 434.9,532.3 436.2,534.4 	"/>
	<polyline class="st40" points="462.8,567.4 467.7,566.8 469.8,564.7 472.8,564.7 	"/>
	<polyline class="st40" points="433.4,561.1 435.2,563.2 438.3,564.1 440.4,564.7 441,568 	"/>
	<polyline class="st40" points="469.2,550.8 471.3,549.2 472.2,546.8 474.1,546.5 475,543.5 	"/>
	<path class="st43" d="M370.2,624.6l-5.7,15.1c0,0-3.8,49,18.8,47.1c22.6-1.9,35.8-30.2,35.8-30.2s-13.2-35.8-28.3-32
		C375.8,628.4,370.2,624.6,370.2,624.6z"/>
	<path class="st42" d="M389,634c0,0-11.3,33.9,1.9,33.9c13.2,0,37.7-20.7,39.6-37.7c1.9-17,35.8-81.1,11.3-75.4
		c-24.5,5.7-35.8,52.8-35.8,52.8L389,634z"/>
	<path class="st42" d="M658.6,635.9l11.8,19.7c0,0,5.2,36.9-21.2,36.9c-26.4,0-64.1-35.8-64.1-35.8s-18.8-7.5-30.2-5.7
		c-11.3,1.9-73.5,0-47.1-32c26.4-32,71.6,0,71.6,0l47.1,22.6l24.5-13.2L658.6,635.9z"/>
	<path class="st43" d="M642.6,610.4l-18.8,30.2c0,0,43.4,5.7,47.1,15.1c3.8,9.4-17-49-17-49L642.6,610.4z"/>
</g>
</svg>
